<svg width="152" height="36" viewBox="0 0 152 36" fill="none" xmlns="http://www.w3.org/2000/svg">
<path d="M52.6236 28H48.6861L55.8551 7.63636H60.4091L67.5881 28H63.6506L58.2116 11.8125H58.0526L52.6236 28ZM52.7528 20.0156H63.4915V22.9787H52.7528V20.0156ZM76.2884 34.0455C74.9957 34.0455 73.8854 33.8698 72.9574 33.5185C72.0294 33.1738 71.2836 32.7098 70.7202 32.1264C70.1567 31.5431 69.7656 30.8968 69.5469 30.1875L72.7884 29.402C72.9342 29.7003 73.1463 29.9953 73.4247 30.2869C73.7031 30.5852 74.0777 30.8305 74.5483 31.0227C75.0256 31.2216 75.6255 31.321 76.348 31.321C77.3688 31.321 78.214 31.0724 78.8835 30.5753C79.553 30.0848 79.8878 29.276 79.8878 28.1491V25.2557H79.7088C79.5232 25.6269 79.2514 26.008 78.8935 26.3991C78.5421 26.7902 78.0748 27.1184 77.4915 27.3835C76.9148 27.6487 76.1889 27.7812 75.3139 27.7812C74.1406 27.7812 73.0767 27.5062 72.1222 26.956C71.1742 26.3991 70.4186 25.5705 69.8551 24.4702C69.2983 23.3632 69.0199 21.9777 69.0199 20.3139C69.0199 18.6368 69.2983 17.2216 69.8551 16.0682C70.4186 14.9081 71.1776 14.0298 72.1321 13.4332C73.0866 12.83 74.1506 12.5284 75.3239 12.5284C76.2188 12.5284 76.9545 12.6809 77.5312 12.9858C78.1146 13.2841 78.5786 13.6454 78.9233 14.0696C79.268 14.4872 79.5298 14.8816 79.7088 15.2528H79.9077V12.7273H83.4574V28.2486C83.4574 29.5545 83.1458 30.6349 82.5227 31.4901C81.8996 32.3452 81.0478 32.9848 79.9673 33.4091C78.8868 33.8333 77.6605 34.0455 76.2884 34.0455ZM76.3182 24.9574C77.0805 24.9574 77.7301 24.7718 78.267 24.4006C78.804 24.0294 79.2116 23.4957 79.4901 22.7997C79.7685 22.1037 79.9077 21.2685 79.9077 20.294C79.9077 19.3329 79.7685 18.491 79.4901 17.7685C79.2183 17.0459 78.8139 16.4858 78.277 16.0881C77.7467 15.6837 77.0938 15.4815 76.3182 15.4815C75.5161 15.4815 74.8466 15.6903 74.3097 16.108C73.7727 16.5256 73.3684 17.099 73.0966 17.8281C72.8248 18.5507 72.6889 19.3726 72.6889 20.294C72.6889 21.2287 72.8248 22.0473 73.0966 22.75C73.375 23.446 73.7827 23.9896 74.3196 24.3807C74.8632 24.7652 75.5294 24.9574 76.3182 24.9574ZM93.9077 28.2983C92.3764 28.2983 91.054 27.9801 89.9403 27.3438C88.8333 26.7008 87.9815 25.7926 87.3849 24.6193C86.7884 23.4394 86.4901 22.0507 86.4901 20.4531C86.4901 18.8821 86.7884 17.5033 87.3849 16.3168C87.9882 15.1236 88.83 14.1955 89.9105 13.5327C90.991 12.8632 92.2604 12.5284 93.7188 12.5284C94.66 12.5284 95.5483 12.6809 96.3835 12.9858C97.2254 13.2841 97.9678 13.7481 98.6108 14.3778C99.2604 15.0076 99.7708 15.8097 100.142 16.7841C100.513 17.7519 100.699 18.9053 100.699 20.2443V21.348H88.1804V18.9219H97.2486C97.242 18.2325 97.0928 17.6193 96.8011 17.0824C96.5095 16.5388 96.1018 16.1113 95.5781 15.7997C95.0611 15.4882 94.4579 15.3324 93.7685 15.3324C93.0327 15.3324 92.3864 15.5114 91.8295 15.8693C91.2727 16.2206 90.8385 16.6847 90.527 17.2614C90.2221 17.8314 90.0663 18.4579 90.0597 19.1406V21.2585C90.0597 22.1468 90.2221 22.9091 90.5469 23.5455C90.8717 24.1752 91.3258 24.6591 91.9091 24.9972C92.4924 25.3286 93.1752 25.4943 93.9574 25.4943C94.4811 25.4943 94.955 25.4214 95.3793 25.2756C95.8035 25.1231 96.1714 24.901 96.483 24.6094C96.7945 24.3177 97.0298 23.9564 97.1889 23.5256L100.55 23.9034C100.338 24.7917 99.9332 25.5672 99.3366 26.2301C98.7467 26.8864 97.991 27.3968 97.0696 27.7614C96.1482 28.1193 95.0942 28.2983 93.9077 28.2983ZM107.343 19.0511V28H103.744V12.7273H107.184V15.3224H107.363C107.715 14.4673 108.275 13.7879 109.044 13.2841C109.819 12.7803 110.777 12.5284 111.917 12.5284C112.971 12.5284 113.889 12.7538 114.672 13.2045C115.46 13.6553 116.07 14.3082 116.501 15.1634C116.939 16.0185 117.154 17.0559 117.147 18.2756V28H113.548V18.8324C113.548 17.8116 113.283 17.0128 112.752 16.4361C112.229 15.8594 111.503 15.571 110.575 15.571C109.945 15.571 109.385 15.7102 108.895 15.9886C108.411 16.2604 108.029 16.6548 107.751 17.1719C107.479 17.6889 107.343 18.3153 107.343 19.0511ZM127.468 28.2983C125.944 28.2983 124.635 27.9635 123.541 27.294C122.454 26.6245 121.615 25.6998 121.025 24.5199C120.442 23.3333 120.15 21.9678 120.15 20.4233C120.15 18.8722 120.449 17.5033 121.045 16.3168C121.642 15.1236 122.484 14.1955 123.571 13.5327C124.664 12.8632 125.957 12.5284 127.449 12.5284C128.688 12.5284 129.785 12.7571 130.74 13.2145C131.701 13.6652 132.467 14.3049 133.037 15.1335C133.607 15.9555 133.931 16.9167 134.011 18.017H130.571C130.431 17.2812 130.1 16.6681 129.576 16.1776C129.059 15.6804 128.367 15.4318 127.498 15.4318C126.762 15.4318 126.116 15.6307 125.559 16.0284C125.002 16.4195 124.568 16.983 124.257 17.7188C123.952 18.4545 123.799 19.3362 123.799 20.3636C123.799 21.4044 123.952 22.2992 124.257 23.0483C124.562 23.7907 124.989 24.3641 125.539 24.7685C126.096 25.1662 126.749 25.3651 127.498 25.3651C128.029 25.3651 128.502 25.2656 128.92 25.0668C129.344 24.8613 129.699 24.5663 129.984 24.1818C130.269 23.7973 130.465 23.33 130.571 22.7798H134.011C133.925 23.8603 133.607 24.8182 133.056 25.6534C132.506 26.482 131.757 27.1316 130.809 27.6023C129.861 28.0663 128.748 28.2983 127.468 28.2983ZM139.204 33.7273C138.713 33.7273 138.259 33.6875 137.842 33.608C137.431 33.535 137.103 33.4489 136.857 33.3494L137.692 30.5455C138.216 30.6979 138.683 30.7708 139.094 30.7642C139.505 30.7576 139.867 30.6283 140.178 30.3764C140.496 30.1312 140.765 29.7202 140.984 29.1435L141.292 28.3182L135.754 12.7273H139.572L143.092 24.2614H143.251L146.781 12.7273H150.609L144.494 29.8494C144.209 30.6581 143.831 31.3509 143.36 31.9276C142.889 32.5109 142.313 32.955 141.63 33.2599C140.954 33.5715 140.145 33.7273 139.204 33.7273Z" fill="#090E34"/>
<path d="M2.5 2.5H33.5V33.5H2.5V2.5Z" stroke="#4A6CF7" stroke-width="5"/>
<path d="M10 10H26V26L10 10Z" fill="#4A6CF7"/>
<path opacity="0.5" d="M15.5 20.5C17.5296 22.5296 16.0922 26 13.2218 26C11.4425 26 10 24.5575 10 22.7782C10 19.9078 13.4704 18.4704 15.5 20.5Z" fill="#4A6CF7"/>
</svg>
