<svg width="171" height="40" viewBox="0 0 171 40" fill="none" xmlns="http://www.w3.org/2000/svg">
<path d="M35.0995 14.7345V27.3065C35.0995 29.861 33.7866 32.2344 31.6266 33.5925L21.5186 39.9497C21.3052 40.0855 21.0206 39.9303 21.0206 39.678V35.2287C21.0206 34.4979 21.3828 33.8189 21.9907 33.4114L28.4384 29.1108C29.3373 28.5094 29.8805 27.5005 29.8805 26.4205V17.7546C29.8805 17.0626 30.2492 16.4224 30.8506 16.0732L34.1294 14.1848C34.5627 13.939 35.0995 14.2495 35.0995 14.7474V14.7345Z" fill="#625DF5"/>
<path d="M34.317 10.9714L20.0376 19.217C19.0352 19.7925 18.4209 20.8596 18.4209 22.0172V39.3878C18.4209 39.64 18.1492 39.7952 17.9358 39.6659L4.70415 31.9701C2.36953 30.612 0.933838 28.1221 0.933838 25.4189V14.9034C0.933838 11.7345 2.62175 8.80494 5.37026 7.22051L17.412 0.261917C18.0134 -0.0873057 18.7507 -0.0873057 19.3521 0.261917L22.3658 2.00156C23.0125 2.37666 23.0125 3.30792 22.3658 3.68301L7.98943 11.9803C6.98704 12.5559 6.37266 13.6229 6.37266 14.7805V24.7787C6.37266 25.9363 6.98704 27.0033 7.98943 27.5789L12.7557 30.3274C12.8592 30.3856 12.982 30.3145 12.982 30.1981V20.2646C12.982 18.2469 14.0556 16.3908 15.8017 15.382L29.6154 7.40805C30.2621 7.03296 31.064 7.0653 31.6784 7.48566L34.3752 9.32878C34.9637 9.72974 34.9313 10.6093 34.3105 10.9714H34.317Z" fill="#625DF5"/>
<path d="M50.6521 9.17545H55.2637V21.7009C55.2637 22.7289 55.4043 23.6454 55.6855 24.4504C55.9668 25.2456 56.3838 25.9197 56.9366 26.4725C57.4991 27.0253 58.1926 27.4471 59.0169 27.7381C59.8413 28.0194 60.8014 28.16 61.8973 28.16C62.9836 28.16 63.9388 28.0194 64.7632 27.7381C65.5973 27.4471 66.2907 27.0253 66.8435 26.4725C67.406 25.9197 67.8279 25.2456 68.1091 24.4504C68.3904 23.6454 68.531 22.7289 68.531 21.7009V9.17545H73.1426V22.2537C73.1426 23.7472 72.8904 25.105 72.3861 26.327C71.8818 27.549 71.1496 28.5964 70.1894 29.4693C69.2293 30.3421 68.0509 31.0161 66.6544 31.4914C65.2675 31.9666 63.6818 32.2042 61.8973 32.2042C60.1128 32.2042 58.5223 31.9666 57.1257 31.4914C55.7389 31.0161 54.5654 30.3421 53.6052 29.4693C52.6451 28.5964 51.9129 27.549 51.4086 26.327C50.9043 25.105 50.6521 23.7472 50.6521 22.2537V9.17545Z" fill="#101828"/>
<path d="M76.3285 9.17545H80.9692V31.9132H76.3285V9.17545Z" fill="#101828"/>
<path d="M83.1367 23.4029C83.1367 22.0355 83.3937 20.8038 83.9078 19.7079C84.4218 18.6023 85.1297 17.6615 86.0317 16.8856C86.9433 16.1001 88.0199 15.4988 89.2612 15.0817C90.5123 14.655 91.8652 14.4417 93.32 14.4417C93.9407 14.4417 94.5517 14.4804 95.153 14.558C95.764 14.6356 96.3459 14.7423 96.8987 14.8781C97.4612 15.0139 97.9849 15.1787 98.4698 15.3727C98.9644 15.557 99.4009 15.7606 99.7791 15.9837V7.77889H104.085V31.9132H99.7791V30.2985C99.4009 30.5603 98.9547 30.8076 98.4407 31.0404C97.9267 31.2731 97.3739 31.4768 96.7823 31.6514C96.1907 31.826 95.5749 31.9617 94.9348 32.0587C94.3044 32.1654 93.6788 32.2187 93.0581 32.2187C91.6034 32.2187 90.265 32.0054 89.043 31.5786C87.8307 31.1519 86.7882 30.5506 85.9153 29.7748C85.0425 28.9989 84.3587 28.0727 83.8641 26.9962C83.3792 25.91 83.1367 24.7122 83.1367 23.4029ZM87.661 23.4029C87.661 24.0915 87.7968 24.7413 88.0683 25.3523C88.3496 25.9633 88.7472 26.5016 89.2612 26.9671C89.785 27.4229 90.4105 27.7866 91.1379 28.0581C91.8749 28.32 92.6993 28.4509 93.611 28.4509C94.1929 28.4509 94.7748 28.3976 95.3567 28.2909C95.9386 28.1745 96.4962 28.0145 97.0296 27.8108C97.5727 27.6072 98.077 27.3599 98.5426 27.0689C99.0178 26.778 99.43 26.4531 99.7791 26.0942V20.1443C99.3427 19.7951 98.882 19.4993 98.3971 19.2569C97.9122 19.0144 97.4176 18.8156 96.9132 18.6604C96.4089 18.5053 95.8998 18.3937 95.3858 18.3258C94.8717 18.2483 94.3723 18.2095 93.8874 18.2095C92.8981 18.2095 92.0156 18.3452 91.2397 18.6168C90.4735 18.8787 89.8237 19.2423 89.2903 19.7079C88.7666 20.1734 88.3641 20.7213 88.0829 21.3517C87.8016 21.9821 87.661 22.6659 87.661 23.4029Z" fill="#101828"/>
<path d="M106.689 23.272C106.689 22.1082 106.927 20.9977 107.402 19.9406C107.877 18.8738 108.561 17.9331 109.453 17.1184C110.345 16.3037 111.437 15.654 112.726 15.169C114.026 14.6841 115.5 14.4417 117.149 14.4417C118.788 14.4417 120.262 14.689 121.571 15.1836C122.89 15.6685 124.006 16.3377 124.917 17.1911C125.839 18.0446 126.542 19.0484 127.027 20.2025C127.521 21.3566 127.769 22.5931 127.769 23.9121C127.769 24.077 127.764 24.2564 127.754 24.4504C127.754 24.6346 127.744 24.8043 127.725 24.9595H111.49C111.674 25.4735 111.97 25.9439 112.377 26.3706C112.794 26.7974 113.313 27.1659 113.934 27.4762C114.555 27.7866 115.272 28.029 116.087 28.2036C116.902 28.3685 117.803 28.4509 118.793 28.4509C119.782 28.4509 120.766 28.3491 121.746 28.1454C122.725 27.9321 123.661 27.6654 124.554 27.3453L126.008 30.6331C125.446 30.8949 124.874 31.1277 124.292 31.3313C123.719 31.5253 123.118 31.6902 122.488 31.826C121.867 31.952 121.212 32.049 120.524 32.1169C119.845 32.1848 119.127 32.2187 118.371 32.2187C116.441 32.2187 114.749 31.986 113.294 31.5205C111.839 31.0549 110.622 30.4197 109.642 29.6147C108.663 28.8098 107.926 27.8642 107.431 26.778C106.936 25.6917 106.689 24.5231 106.689 23.272ZM123.201 21.599C123.045 21.1238 122.803 20.6825 122.473 20.2752C122.153 19.8582 121.751 19.4993 121.266 19.1987C120.781 18.8884 120.218 18.6459 119.578 18.4713C118.938 18.2968 118.235 18.2095 117.469 18.2095C116.654 18.2095 115.912 18.3016 115.243 18.4859C114.574 18.6701 113.987 18.9174 113.483 19.2278C112.979 19.5381 112.557 19.897 112.217 20.3043C111.887 20.7116 111.645 21.1432 111.49 21.599H123.201Z" fill="#101828"/>
<path d="M129.514 23.3738C129.514 22.1131 129.742 20.9396 130.198 19.8533C130.664 18.7574 131.338 17.8118 132.22 17.0166C133.112 16.2116 134.199 15.5812 135.479 15.1254C136.769 14.6696 138.238 14.4417 139.887 14.4417C140.604 14.4417 141.327 14.4853 142.054 14.5726C142.782 14.6599 143.48 14.7859 144.149 14.9508C144.828 15.106 145.463 15.2951 146.055 15.5182C146.646 15.7315 147.16 15.9691 147.597 16.231L145.604 19.4751C144.663 19.0387 143.771 18.7186 142.927 18.515C142.093 18.3113 141.244 18.2095 140.381 18.2095C139.392 18.2095 138.505 18.3404 137.719 18.6023C136.933 18.8544 136.264 19.2132 135.712 19.6788C135.168 20.1346 134.751 20.6777 134.46 21.3081C134.179 21.9288 134.039 22.6077 134.039 23.3447C134.039 24.0818 134.189 24.7656 134.49 25.3959C134.8 26.0166 135.231 26.5549 135.784 27.0107C136.347 27.4568 137.021 27.8108 137.806 28.0727C138.602 28.3248 139.484 28.4509 140.454 28.4509C141.521 28.4509 142.525 28.3006 143.465 28C144.416 27.6993 145.298 27.2968 146.113 26.7925L148.106 30.0366C147.592 30.347 147.034 30.6379 146.433 30.9095C145.832 31.1713 145.187 31.3992 144.498 31.5932C143.819 31.7872 143.102 31.9375 142.345 32.0442C141.598 32.1605 140.823 32.2187 140.018 32.2187C138.379 32.2187 136.909 31.9957 135.61 31.5495C134.31 31.1034 133.209 30.4876 132.307 29.702C131.405 28.9067 130.712 27.9709 130.227 26.8943C129.752 25.8178 129.514 24.6443 129.514 23.3738Z" fill="#101828"/>
<path d="M150.899 7.77889H155.205V22.0355L163.235 14.7472H169.825L160.85 22.7774L170.393 31.9132H163.934L157.547 25.7305L155.205 27.8254V31.9132H150.899V7.77889Z" fill="#101828"/>
</svg>
